<?xml version="1.0" encoding="utf-8"?>
<!-- Generator: Adobe Illustrator 16.0.0, SVG Export Plug-In . SVG Version: 6.00 Build 0)  -->
<!DOCTYPE svg PUBLIC "-//W3C//DTD SVG 1.1//EN" "http://www.w3.org/Graphics/SVG/1.1/DTD/svg11.dtd">
<svg version="1.1" id="Ebene_1" xmlns="http://www.w3.org/2000/svg" xmlns:xlink="http://www.w3.org/1999/xlink" x="0px" y="0px"
	 width="200px" height="200px" viewBox="0 0 200 200" enable-background="new 0 0 200 200" xml:space="preserve">
<g>
	<path fill="#F9C51B" d="M184.927,81.089c0,27.985,0,55.969,0,83.956c0,11.778-0.279,28.147-17.468,28.147
		c-22.759,0-12.178-31.433-21.647-31.433c-9.913,0,1.59,31.433-21.651,31.433c-21.543,0-13.751-31.433-20.606-31.433
		c-18.726,0-1.149,19.501-17.6,29.069c-29.426,17.115-19.369-23.619-26.25-29.069c-11.232-8.898-10.892,24.629-18.525,29.069
		c-17.248,10.03-26.252-8.026-26.252-21.292c0-29.229,0-58.459,0-87.687C14.927-20.15,184.927-20.827,184.927,81.089z"/>
	<path fill="#76706B" d="M16.972,88.616c0-51.275,82.512-51.275,82.512,0C99.484,139.891,16.972,139.891,16.972,88.616z"/>
	<path fill="#F6F6F6" d="M25.67,88.616c0-40.464,65.114-40.465,65.114,0C90.785,129.079,25.67,129.079,25.67,88.616z"/>
	<path fill="#28324F" d="M84.582,97.174c0,29.127-46.868,29.127-46.868,0C37.714,68.046,84.582,68.046,84.582,97.174z"/>
	<path fill="#EFEFEF" d="M56.313,89.775c0,8.08-12.97,8.078-12.97,0C43.343,81.696,56.313,81.694,56.313,89.775z"/>
	<path fill="#EFEFEF" d="M58.228,93.706c1.946,3.752,3.893,3.752,5.841,0C62.121,89.953,60.174,89.953,58.228,93.706z"/>
	<path fill="#EFEFEF" d="M52.256,104.199C52.256,109.855,52.256,98.544,52.256,104.199
		C52.256,105.076,52.256,103.323,52.256,104.199z"/>
	<path fill="#76706B" d="M101.785,88.674c0-51.275,82.51-51.275,82.51,0C184.295,139.949,101.785,139.949,101.785,88.674z"/>
	<path fill="#F6F6F6" d="M110.484,88.674c0-40.465,65.113-40.464,65.113,0C175.598,129.138,110.484,129.138,110.484,88.674z"/>
	<path fill="#28324F" d="M160.194,95.017c0,29.129-46.868,29.129-46.868,0C113.326,65.887,160.194,65.887,160.194,95.017z"/>
	<path fill="#EFEFEF" d="M130.988,87.165c0,7.494-12.032,7.495-12.032,0S130.988,79.67,130.988,87.165z"/>
	<path fill="#EFEFEF" d="M133.838,91.547c1.948,3.753,3.896,3.753,5.841,0C137.733,87.795,135.786,87.795,133.838,91.547z"/>
	<path fill="#EFEFEF" d="M127.868,102.041C127.868,107.695,127.868,96.389,127.868,102.041
		C127.868,102.919,127.868,101.165,127.868,102.041z"/>
	<path fill="#EFEFEF" d="M117.138,124.126c-5.698,14.675-27.928,14.672-33.63,0C94.717,124.126,105.929,124.126,117.138,124.126z"/>
</g>
<g>
</g>
<g>
</g>
<g>
</g>
<g>
</g>
<g>
</g>
<g>
</g>
</svg>
